<svg xmlns="http://www.w3.org/2000/svg" xmlns:xlink="http://www.w3.org/1999/xlink" id="processonSvg1000" viewBox="98.5 54.0 542.0 414.0" width="542.0" height="414.0"><defs id="ProcessOnDefs1001"><marker id="ProcessOnMarker1024" markerUnits="userSpaceOnUse" orient="auto" markerWidth="16.23606797749979" markerHeight="10.550836550532098" viewBox="-1.0 -1.3763819204711736 16.23606797749979 10.550836550532098" refX="-1.0" refY="3.8990363547948754"><path id="ProcessOnPath1025" d="M12.0 3.8990363547948754L0.0 7.798072709589751V0.0Z" stroke="#323232" stroke-width="2.0" fill="#323232" transform="matrix(1.0,0.0,0.0,1.0,0.0,0.0)"/></marker><marker id="ProcessOnMarker1031" markerUnits="userSpaceOnUse" orient="auto" markerWidth="16.23606797749979" markerHeight="10.550836550532098" viewBox="-1.0 -1.3763819204711736 16.23606797749979 10.550836550532098" refX="-1.0" refY="3.8990363547948754"><path id="ProcessOnPath1032" d="M12.0 3.8990363547948754L0.0 7.798072709589751V0.0Z" stroke="#323232" stroke-width="2.0" fill="#323232" transform="matrix(1.0,0.0,0.0,1.0,0.0,0.0)"/></marker><marker id="ProcessOnMarker1040" markerUnits="userSpaceOnUse" orient="auto" markerWidth="16.23606797749979" markerHeight="10.550836550532098" viewBox="-1.0 -1.3763819204711736 16.23606797749979 10.550836550532098" refX="-1.0" refY="3.8990363547948754"><path id="ProcessOnPath1041" d="M12.0 3.8990363547948754L0.0 7.798072709589751V0.0Z" stroke="#323232" stroke-width="2.0" fill="#323232" transform="matrix(1.0,0.0,0.0,1.0,0.0,0.0)"/></marker><marker id="ProcessOnMarker1047" markerUnits="userSpaceOnUse" orient="auto" markerWidth="16.23606797749979" markerHeight="10.550836550532098" viewBox="-1.0 -1.3763819204711736 16.23606797749979 10.550836550532098" refX="-1.0" refY="3.8990363547948754"><path id="ProcessOnPath1048" d="M12.0 3.8990363547948754L0.0 7.798072709589751V0.0Z" stroke="#323232" stroke-width="2.0" fill="#323232" transform="matrix(1.0,0.0,0.0,1.0,0.0,0.0)"/></marker><marker id="ProcessOnMarker1056" markerUnits="userSpaceOnUse" orient="auto" markerWidth="16.23606797749979" markerHeight="10.550836550532098" viewBox="-1.0 -1.3763819204711736 16.23606797749979 10.550836550532098" refX="-1.0" refY="3.8990363547948754"><path id="ProcessOnPath1057" d="M12.0 3.8990363547948754L0.0 7.798072709589751V0.0Z" stroke="#323232" stroke-width="2.0" fill="#323232" transform="matrix(1.0,0.0,0.0,1.0,0.0,0.0)"/></marker><marker id="ProcessOnMarker1065" markerUnits="userSpaceOnUse" orient="auto" markerWidth="16.23606797749979" markerHeight="10.550836550532098" viewBox="-1.0 -1.3763819204711736 16.23606797749979 10.550836550532098" refX="-1.0" refY="3.8990363547948754"><path id="ProcessOnPath1066" d="M12.0 3.8990363547948754L0.0 7.798072709589751V0.0Z" stroke="#323232" stroke-width="2.0" fill="#323232" transform="matrix(1.0,0.0,0.0,1.0,0.0,0.0)"/></marker><marker id="ProcessOnMarker1072" markerUnits="userSpaceOnUse" orient="auto" markerWidth="16.23606797749979" markerHeight="10.550836550532098" viewBox="-1.0 -1.3763819204711736 16.23606797749979 10.550836550532098" refX="-1.0" refY="3.8990363547948754"><path id="ProcessOnPath1073" d="M12.0 3.8990363547948754L0.0 7.798072709589751V0.0Z" stroke="#323232" stroke-width="2.0" fill="#323232" transform="matrix(1.0,0.0,0.0,1.0,0.0,0.0)"/></marker><marker id="ProcessOnMarker1079" markerUnits="userSpaceOnUse" orient="auto" markerWidth="16.23606797749979" markerHeight="10.550836550532098" viewBox="-1.0 -1.3763819204711736 16.23606797749979 10.550836550532098" refX="-1.0" refY="3.8990363547948754"><path id="ProcessOnPath1080" d="M12.0 3.8990363547948754L0.0 7.798072709589751V0.0Z" stroke="#323232" stroke-width="2.0" fill="#323232" transform="matrix(1.0,0.0,0.0,1.0,0.0,0.0)"/></marker></defs><g id="ProcessOnG1002"><path id="ProcessOnPath1003" d="M98.5 54.0H640.5V468.0H98.5V54.0Z" fill="none"/><g id="ProcessOnG1004"><g id="ProcessOnG1005" transform="matrix(1.0,0.0,0.0,1.0,296.0,74.0)" opacity="1.0"><path id="ProcessOnPath1006" d="M58.5 30.0L58.5 374.0" stroke="#323232" stroke-width="2.0" stroke-dasharray="2.0 3.0" opacity="1.0" fill="none"/><path id="ProcessOnPath1007" d="M0.0 0.0L117.0 0.0L117.0 30.0L0.0 30.0Z" stroke="#323232" stroke-width="2.0" stroke-dasharray="none" opacity="1.0" fill="#ffffff"/><g id="ProcessOnG1008" transform="matrix(1.0,0.0,0.0,1.0,10.0,6.875)"><text id="ProcessOnText1009" fill="#000000" font-size="13" x="47.5" y="13.325" font-family="微软雅黑" font-weight="normal" font-style="normal" text-decoration="none" family="微软雅黑" text-anchor="middle" size="13">用户子系统</text></g></g><g id="ProcessOnG1010" transform="matrix(1.0,0.0,0.0,1.0,503.5,74.0)" opacity="1.0"><path id="ProcessOnPath1011" d="M58.5 30.0L58.5 374.0" stroke="#323232" stroke-width="2.0" stroke-dasharray="2.0 3.0" opacity="1.0" fill="none"/><path id="ProcessOnPath1012" d="M0.0 0.0L117.0 0.0L117.0 30.0L0.0 30.0Z" stroke="#323232" stroke-width="2.0" stroke-dasharray="none" opacity="1.0" fill="#ffffff"/><g id="ProcessOnG1013" transform="matrix(1.0,0.0,0.0,1.0,10.0,6.875)"><text id="ProcessOnText1014" fill="#000000" font-size="13" x="47.5" y="13.325" font-family="微软雅黑" font-weight="normal" font-style="normal" text-decoration="none" family="微软雅黑" text-anchor="middle" size="13">Accounts9</text></g></g><g id="ProcessOnG1015" transform="matrix(1.0,0.0,0.0,1.0,118.5,74.0)" opacity="1.0"><path id="ProcessOnPath1016" d="M58.5 30.0L58.5 374.0" stroke="#323232" stroke-width="2.0" stroke-dasharray="2.0 3.0" opacity="1.0" fill="none"/><path id="ProcessOnPath1017" d="M0.0 0.0L117.0 0.0L117.0 30.0L0.0 30.0Z" stroke="#323232" stroke-width="2.0" stroke-dasharray="none" opacity="1.0" fill="#ffffff"/><g id="ProcessOnG1018" transform="matrix(1.0,0.0,0.0,1.0,10.0,6.875)"><text id="ProcessOnText1019" fill="#000000" font-size="13" x="47.5" y="13.325" font-family="微软雅黑" font-weight="normal" font-style="normal" text-decoration="none" family="微软雅黑" text-anchor="middle" size="13">用户代理</text></g></g><g id="ProcessOnG1020" transform="matrix(1.0,0.0,0.0,1.0,339.5,138.0)" opacity="1.0"><path id="ProcessOnPath1021" d="M0.0 4.0Q0.0 0.0 4.0 0.0L26.0 0.0Q30.0 0.0 30.0 4.0L30.0 52.0Q30.0 56.0 26.0 56.0L4.0 56.0Q0.0 56.0 0.0 52.0L0.0 4.0Z" stroke="#323232" stroke-width="2.0" stroke-dasharray="none" opacity="1.0" fill="#ffffff"/></g><g id="ProcessOnG1022"><path id="ProcessOnPath1023" d="M178.0 141.86824088833464L258.9620193825305 141.86824088833464L258.9620193825305 141.86824088833464L324.68797078756126 141.86824088833464" stroke="#323232" stroke-width="2.0" stroke-dasharray="none" fill="none" marker-end="url(#ProcessOnMarker1024)"/><g id="ProcessOnG1026" transform="matrix(1.0,0.0,0.0,1.0,251.34398539378063,133.74324088833464)"><path id="ProcessOnPath1027" d="M0 0H51.99999999999997V16.25H0Z" fill="#fff" transform="matrix(1.0,0.0,0.0,1.0,-25.999999999999986,0.0)"/><text id="ProcessOnText1028" fill="#000000" font-size="13" x="0.0" y="13.325" font-family="微软雅黑" font-weight="normal" font-style="normal" text-decoration="none" family="微软雅黑" text-anchor="middle" size="13">请求登录</text></g></g><g id="ProcessOnG1029"><path id="ProcessOnPath1030" d="M356.0 194.0L267.5 194.0L267.5 194.0L194.2360679774998 194.0" stroke="#323232" stroke-width="2.0" stroke-dasharray="2.0 3.0" fill="none" marker-end="url(#ProcessOnMarker1031)"/><g id="ProcessOnG1033" transform="matrix(1.0,0.0,0.0,1.0,275.1180339887499,185.875)"><path id="ProcessOnPath1034" d="M0 0H105.0V16.25H0Z" fill="#fff" transform="matrix(1.0,0.0,0.0,1.0,-52.5,0.0)"/><text id="ProcessOnText1035" fill="#000000" font-size="13" x="0.0" y="13.325" font-family="微软雅黑" font-weight="normal" font-style="normal" text-decoration="none" family="微软雅黑" text-anchor="middle" size="13">跳转到Accounts9</text></g></g><g id="ProcessOnG1036" transform="matrix(1.0,0.0,0.0,1.0,547.0,221.0)" opacity="1.0"><path id="ProcessOnPath1037" d="M0.0 4.0Q0.0 0.0 4.0 0.0L26.0 0.0Q30.0 0.0 30.0 4.0L30.0 54.0Q30.0 58.0 26.0 58.0L4.0 58.0Q0.0 58.0 0.0 54.0L0.0 4.0Z" stroke="#323232" stroke-width="2.0" stroke-dasharray="none" opacity="1.0" fill="#ffffff"/></g><g id="ProcessOnG1038"><path id="ProcessOnPath1039" d="M178.0 226.0L362.90630778703667 226.0L362.90630778703667 223.8102371836192L532.5765475965735 223.8102371836192" stroke="#323232" stroke-width="2.0" stroke-dasharray="none" fill="none" marker-end="url(#ProcessOnMarker1040)"/><g id="ProcessOnG1042" transform="matrix(1.0,0.0,0.0,1.0,356.38315520647717,217.875)"><path id="ProcessOnPath1043" d="M0 0H26.0V16.25H0Z" fill="#fff" transform="matrix(1.0,0.0,0.0,1.0,-13.0,0.0)"/><text id="ProcessOnText1044" fill="#000000" font-size="13" x="0.0" y="13.325" font-family="微软雅黑" font-weight="normal" font-style="normal" text-decoration="none" family="微软雅黑" text-anchor="middle" size="13">登录</text></g></g><g id="ProcessOnG1045"><path id="ProcessOnPath1046" d="M562.0 279.0L370.5 279.0L370.5 279.0L194.2360679774998 279.0" stroke="#323232" stroke-width="2.0" stroke-dasharray="2.0 3.0" fill="none" marker-end="url(#ProcessOnMarker1047)"/><g id="ProcessOnG1049" transform="matrix(1.0,0.0,0.0,1.0,378.1180339887499,270.875)"><path id="ProcessOnPath1050" d="M0 0H52.0V16.25H0Z" fill="#fff" transform="matrix(1.0,0.0,0.0,1.0,-26.0,0.0)"/><text id="ProcessOnText1051" fill="#000000" font-size="13" x="0.0" y="13.325" font-family="微软雅黑" font-weight="normal" font-style="normal" text-decoration="none" family="微软雅黑" text-anchor="middle" size="13">返回令牌</text></g></g><g id="ProcessOnG1052" transform="matrix(1.0,0.0,0.0,1.0,339.5,306.0)" opacity="1.0"><path id="ProcessOnPath1053" d="M0.0 4.0Q0.0 0.0 4.0 0.0L26.0 0.0Q30.0 0.0 30.0 4.0L30.0 92.0Q30.0 96.0 26.0 96.0L4.0 96.0Q0.0 96.0 0.0 92.0L0.0 4.0Z" stroke="#323232" stroke-width="2.0" stroke-dasharray="none" opacity="1.0" fill="#ffffff"/></g><g id="ProcessOnG1054"><path id="ProcessOnPath1055" d="M177.0 310.5853988498953L258.44888873943364 310.5853988498953L258.44888873943364 310.5853988498953L324.66170950136745 310.5853988498953" stroke="#323232" stroke-width="2.0" stroke-dasharray="none" fill="none" marker-end="url(#ProcessOnMarker1056)"/><g id="ProcessOnG1058" transform="matrix(1.0,0.0,0.0,1.0,250.83085475068373,302.4603988498953)"><path id="ProcessOnPath1059" d="M0 0H65.0V16.25H0Z" fill="#fff" transform="matrix(1.0,0.0,0.0,1.0,-32.5,0.0)"/><text id="ProcessOnText1060" fill="#000000" font-size="13" x="0.0" y="13.325" font-family="微软雅黑" font-weight="normal" font-style="normal" text-decoration="none" family="微软雅黑" text-anchor="middle" size="13">用令牌登录</text></g></g><g id="ProcessOnG1061" transform="matrix(1.0,0.0,0.0,1.0,547.0,325.0)" opacity="1.0"><path id="ProcessOnPath1062" d="M0.0 4.0Q0.0 0.0 4.0 0.0L26.0 0.0Q30.0 0.0 30.0 4.0L30.0 54.0Q30.0 58.0 26.0 58.0L4.0 58.0Q0.0 58.0 0.0 54.0L0.0 4.0Z" stroke="#323232" stroke-width="2.0" stroke-dasharray="none" opacity="1.0" fill="#ffffff"/></g><g id="ProcessOnG1063"><path id="ProcessOnPath1064" d="M371.0 330.0L459.4095389311789 330.0L459.4095389311789 330.026060429977L532.5830098848579 330.026060429977" stroke="#323232" stroke-width="2.0" stroke-dasharray="none" fill="none" marker-end="url(#ProcessOnMarker1065)"/><g id="ProcessOnG1067" transform="matrix(1.0,0.0,0.0,1.0,451.8045351574175,321.875)"><path id="ProcessOnPath1068" d="M0 0H117.0V16.25H0Z" fill="#fff" transform="matrix(1.0,0.0,0.0,1.0,-58.5,0.0)"/><text id="ProcessOnText1069" fill="#000000" font-size="13" x="0.0" y="13.325" font-family="微软雅黑" font-weight="normal" font-style="normal" text-decoration="none" family="微软雅黑" text-anchor="middle" size="13">用令牌换取用户信息</text></g></g><g id="ProcessOnG1070"><path id="ProcessOnPath1071" d="M561.0 383.0L465.0 383.0L465.0 383.0L384.2360679774998 383.0" stroke="#323232" stroke-width="2.0" stroke-dasharray="2.0 3.0" fill="none" marker-end="url(#ProcessOnMarker1072)"/><g id="ProcessOnG1074" transform="matrix(1.0,0.0,0.0,1.0,472.61803398874986,374.875)"><path id="ProcessOnPath1075" d="M0 0H78.0V16.25H0Z" fill="#fff" transform="matrix(1.0,0.0,0.0,1.0,-39.0,0.0)"/><text id="ProcessOnText1076" fill="#000000" font-size="13" x="0.0" y="13.325" font-family="微软雅黑" font-weight="normal" font-style="normal" text-decoration="none" family="微软雅黑" text-anchor="middle" size="13">返回用户信息</text></g></g><g id="ProcessOnG1077"><path id="ProcessOnPath1078" d="M355.0 403.0L267.0 403.0L267.0 403.0L194.2360679774998 403.0" stroke="#323232" stroke-width="2.0" stroke-dasharray="2.0 3.0" fill="none" marker-end="url(#ProcessOnMarker1079)"/><g id="ProcessOnG1081" transform="matrix(1.0,0.0,0.0,1.0,274.6180339887499,394.875)"><path id="ProcessOnPath1082" d="M0 0H52.0V16.25H0Z" fill="#fff" transform="matrix(1.0,0.0,0.0,1.0,-26.0,0.0)"/><text id="ProcessOnText1083" fill="#000000" font-size="13" x="0.0" y="13.325" font-family="微软雅黑" font-weight="normal" font-style="normal" text-decoration="none" family="微软雅黑" text-anchor="middle" size="13">登录成功</text></g></g></g></g></svg>