<svg xmlns="http://www.w3.org/2000/svg" xmlns:xlink="http://www.w3.org/1999/xlink" id="processonSvg1000" viewBox="186.59999084472656 44.599998474121094 656.0 331.0" width="656.0" height="331.0"><defs id="ProcessOnDefs1001"><marker id="ProcessOnMarker1022" markerUnits="userSpaceOnUse" orient="auto" markerWidth="16.23606797749979" markerHeight="10.550836550532098" viewBox="-1.0 -1.3763819204711736 16.23606797749979 10.550836550532098" refX="-1.0" refY="3.8990363547948754"><path id="ProcessOnPath1023" d="M12.0 3.8990363547948754L0.0 7.798072709589751V0.0Z" stroke="#323232" stroke-width="2.0" fill="#323232" transform="matrix(1.0,0.0,0.0,1.0,0.0,0.0)"/></marker><marker id="ProcessOnMarker1033" markerUnits="userSpaceOnUse" orient="auto" markerWidth="16.23606797749979" markerHeight="10.550836550532098" viewBox="-1.0 -1.3763819204711736 16.23606797749979 10.550836550532098" refX="-1.0" refY="3.8990363547948754"><path id="ProcessOnPath1034" d="M12.0 3.8990363547948754L0.0 7.798072709589751V0.0Z" stroke="#323232" stroke-width="2.0" fill="#323232" transform="matrix(1.0,0.0,0.0,1.0,0.0,0.0)"/></marker><marker id="ProcessOnMarker1040" markerUnits="userSpaceOnUse" orient="auto" markerWidth="16.23606797749979" markerHeight="10.550836550532098" viewBox="-1.0 -1.3763819204711736 16.23606797749979 10.550836550532098" refX="-1.0" refY="3.8990363547948754"><path id="ProcessOnPath1041" d="M12.0 3.8990363547948754L0.0 7.798072709589751V0.0Z" stroke="#323232" stroke-width="2.0" fill="#323232" transform="matrix(1.0,0.0,0.0,1.0,0.0,0.0)"/></marker><marker id="ProcessOnMarker1047" markerUnits="userSpaceOnUse" orient="auto" markerWidth="16.23606797749979" markerHeight="10.550836550532098" viewBox="-1.0 -1.3763819204711736 16.23606797749979 10.550836550532098" refX="-1.0" refY="3.8990363547948754"><path id="ProcessOnPath1048" d="M12.0 3.8990363547948754L0.0 7.798072709589751V0.0Z" stroke="#323232" stroke-width="2.0" fill="#323232" transform="matrix(1.0,0.0,0.0,1.0,0.0,0.0)"/></marker></defs><g id="ProcessOnG1002"><path id="ProcessOnPath1003" d="M186.59999084472656 44.599998474121094H842.5999908447266V375.5999984741211H186.59999084472656V44.599998474121094Z" fill="none"/><g id="ProcessOnG1004"><g id="ProcessOnG1005" transform="matrix(1.0,0.0,0.0,1.0,206.59999084472656,64.5999984741211)" opacity="1.0"><path id="ProcessOnPath1006" d="M54.0 30.0L54.0 291.0" stroke="#323232" stroke-width="2.0" stroke-dasharray="2.0 3.0" opacity="1.0" fill="none"/><path id="ProcessOnPath1007" d="M0.0 0.0L108.0 0.0L108.0 30.0L0.0 30.0Z" stroke="#323232" stroke-width="2.0" stroke-dasharray="none" opacity="1.0" fill="#ffffff"/><g id="ProcessOnG1008" transform="matrix(1.0,0.0,0.0,1.0,10.0,6.875)"><text id="ProcessOnText1009" fill="#000000" font-size="13" x="43.0" y="13.325" font-family="微软雅黑" font-weight="normal" font-style="normal" text-decoration="none" family="微软雅黑" text-anchor="middle" size="13">学生</text></g></g><g id="ProcessOnG1010" transform="matrix(1.0,0.0,0.0,1.0,683.0999755859375,64.5999984741211)" opacity="1.0"><path id="ProcessOnPath1011" d="M69.75000762939453 30.0L69.75000762939453 291.0" stroke="#323232" stroke-width="2.0" stroke-dasharray="2.0 3.0" opacity="1.0" fill="none"/><path id="ProcessOnPath1012" d="M0.0 0.0L139.50001525878906 0.0L139.50001525878906 30.0L0.0 30.0Z" stroke="#323232" stroke-width="2.0" stroke-dasharray="none" opacity="1.0" fill="#ffffff"/><g id="ProcessOnG1013" transform="matrix(1.0,0.0,0.0,1.0,10.0,6.875)"><text id="ProcessOnText1014" fill="#000000" font-size="13" x="58.75000762939453" y="13.325" font-family="微软雅黑" font-weight="normal" font-style="normal" text-decoration="none" family="微软雅黑" text-anchor="middle" size="13">报名数据库</text></g></g><g id="ProcessOnG1015" transform="matrix(1.0,0.0,0.0,1.0,439.34996795654297,64.5999984741211)" opacity="1.0"><path id="ProcessOnPath1016" d="M69.75000762939453 30.0L69.75000762939453 291.0" stroke="#323232" stroke-width="2.0" stroke-dasharray="2.0 3.0" opacity="1.0" fill="none"/><path id="ProcessOnPath1017" d="M0.0 0.0L139.50001525878906 0.0L139.50001525878906 30.0L0.0 30.0Z" stroke="#323232" stroke-width="2.0" stroke-dasharray="none" opacity="1.0" fill="#ffffff"/><g id="ProcessOnG1018" transform="matrix(1.0,0.0,0.0,1.0,10.0,6.875)"><text id="ProcessOnText1019" fill="#000000" font-size="13" x="58.75000762939453" y="13.325" font-family="微软雅黑" font-weight="normal" font-style="normal" text-decoration="none" family="微软雅黑" text-anchor="middle" size="13">报名系统</text></g></g><g id="ProcessOnG1020"><path id="ProcessOnPath1021" d="M260.59999084472656 155.88557369349417L377.86603528784553 155.88557369349417L377.86603528784553 156.29695776369354L479.89601175346473 156.29695776369354" stroke="#323232" stroke-width="2.0" stroke-dasharray="none" fill="none" marker-end="url(#ProcessOnMarker1022)"/><g id="ProcessOnG1024" transform="matrix(1.0,0.0,0.0,1.0,370.45369333419535,147.76057369349417)"><path id="ProcessOnPath1025" d="M0 0H52.0V16.25H0Z" fill="#fff" transform="matrix(1.0,0.0,0.0,1.0,-26.0,0.0)"/><text id="ProcessOnText1026" fill="#000000" font-size="13" x="0.0" y="13.325" font-family="微软雅黑" font-weight="normal" font-style="normal" text-decoration="none" family="微软雅黑" text-anchor="middle" size="13">报名赛事</text></g></g><g id="ProcessOnG1027" transform="matrix(1.0,0.0,0.0,1.0,494.0999755859375,154.5999984741211)" opacity="1.0"><path id="ProcessOnPath1028" d="M0.0 4.0Q0.0 0.0 4.0 0.0L26.0 0.0Q30.0 0.0 30.0 4.0L30.0 128.0Q30.0 132.0 26.0 132.0L4.0 132.0Q0.0 132.0 0.0 128.0L0.0 4.0Z" stroke="#323232" stroke-width="2.0" stroke-dasharray="none" opacity="1.0" fill="#ffffff"/></g><g id="ProcessOnG1029" transform="matrix(1.0,0.0,0.0,1.0,737.849983215332,169.0999755859375)" opacity="1.0"><path id="ProcessOnPath1030" d="M0.0 4.0Q0.0 0.0 4.0 0.0L26.0 0.0Q30.0 0.0 30.0 4.0L30.0 59.500022888183594Q30.0 63.500022888183594 26.0 63.500022888183594L4.0 63.500022888183594Q0.0 63.500022888183594 0.0 59.500022888183594L0.0 4.0Z" stroke="#323232" stroke-width="2.0" stroke-dasharray="none" opacity="1.0" fill="#ffffff"/></g><g id="ProcessOnG1031"><path id="ProcessOnPath1032" d="M523.5999908447266 171.5999984741211L630.8320416522954 171.5999984741211L630.8320416522954 171.5999984741211L722.8280244823645 171.5999984741211" stroke="#323232" stroke-width="2.0" stroke-dasharray="none" fill="none" marker-end="url(#ProcessOnMarker1033)"/><g id="ProcessOnG1035" transform="matrix(1.0,0.0,0.0,1.0,623.2140076635455,163.4749984741211)"><path id="ProcessOnPath1036" d="M0 0H104.0V16.25H0Z" fill="#fff" transform="matrix(1.0,0.0,0.0,1.0,-52.0,0.0)"/><text id="ProcessOnText1037" fill="#000000" font-size="13" x="0.0" y="13.325" font-family="微软雅黑" font-weight="normal" font-style="normal" text-decoration="none" family="微软雅黑" text-anchor="middle" size="13">标记报名等待信息</text></g></g><g id="ProcessOnG1038"><path id="ProcessOnPath1039" d="M738.5999908447266 213.5999984741211L631.0999908447266 213.5999984741211L631.0999908447266 213.5999984741211L538.8360588222264 213.5999984741211" stroke="#323232" stroke-width="2.0" stroke-dasharray="2.0 3.0" fill="none" marker-end="url(#ProcessOnMarker1040)"/><g id="ProcessOnG1042" transform="matrix(1.0,0.0,0.0,1.0,638.7180248334764,205.4749984741211)"><path id="ProcessOnPath1043" d="M0 0H52.0V16.25H0Z" fill="#fff" transform="matrix(1.0,0.0,0.0,1.0,-26.0,0.0)"/><text id="ProcessOnText1044" fill="#000000" font-size="13" x="0.0" y="13.325" font-family="微软雅黑" font-weight="normal" font-style="normal" text-decoration="none" family="微软雅黑" text-anchor="middle" size="13">审核成功</text></g></g><g id="ProcessOnG1045"><path id="ProcessOnPath1046" d="M491.5999755859375 250.0999755859375L377.09998321533203 250.0999755859375L377.09998321533203 250.0999755859375L277.83605882222633 250.0999755859375" stroke="#323232" stroke-width="2.0" stroke-dasharray="2.0 3.0" fill="none" marker-end="url(#ProcessOnMarker1047)"/><g id="ProcessOnG1049" transform="matrix(1.0,0.0,0.0,1.0,384.7180172040819,241.9749755859375)"><path id="ProcessOnPath1050" d="M0 0H78.0V16.25H0Z" fill="#fff" transform="matrix(1.0,0.0,0.0,1.0,-39.0,0.0)"/><text id="ProcessOnText1051" fill="#000000" font-size="13" x="0.0" y="13.325" font-family="微软雅黑" font-weight="normal" font-style="normal" text-decoration="none" family="微软雅黑" text-anchor="middle" size="13">赛事报名成功</text></g></g></g></g></svg>