<svg xmlns="http://www.w3.org/2000/svg" xmlns:xlink="http://www.w3.org/1999/xlink" id="processonSvg1000" viewBox="127.59999084472656 8.5 618.6499847412109 502.0999984741211" width="618.6499847412109" height="502.0999984741211"><defs id="ProcessOnDefs1001"><marker id="ProcessOnMarker1018" markerUnits="userSpaceOnUse" orient="auto" markerWidth="16.23606797749979" markerHeight="10.550836550532098" viewBox="-1.0 -1.3763819204711736 16.23606797749979 10.550836550532098" refX="-1.0" refY="3.8990363547948754"><path id="ProcessOnPath1019" d="M12.0 3.8990363547948754L0.0 7.798072709589751V0.0Z" stroke="#323232" stroke-width="2.0" fill="#323232" transform="matrix(1.0,0.0,0.0,1.0,0.0,0.0)"/></marker><marker id="ProcessOnMarker1027" markerUnits="userSpaceOnUse" orient="auto" markerWidth="16.23606797749979" markerHeight="10.550836550532098" viewBox="-1.0 -1.3763819204711736 16.23606797749979 10.550836550532098" refX="-1.0" refY="3.8990363547948754"><path id="ProcessOnPath1028" d="M12.0 3.8990363547948754L0.0 7.798072709589751V0.0Z" stroke="#323232" stroke-width="2.0" fill="#323232" transform="matrix(1.0,0.0,0.0,1.0,0.0,0.0)"/></marker><marker id="ProcessOnMarker1048" markerUnits="userSpaceOnUse" orient="auto" markerWidth="16.23606797749979" markerHeight="10.550836550532098" viewBox="-1.0 -1.3763819204711736 16.23606797749979 10.550836550532098" refX="15.23606797749979" refY="3.8990363547948754"><path id="ProcessOnPath1049" d="M12.0 3.8990363547948754L0.0 7.798072709589751V0.0Z" stroke="#323232" stroke-width="2.0" fill="#323232" transform="matrix(-1.0,1.2246467991473532E-16,-1.2246467991473532E-16,-1.0,14.23606797749979,7.798072709589751)"/></marker><marker id="ProcessOnMarker1052" markerUnits="userSpaceOnUse" orient="auto" markerWidth="16.23606797749979" markerHeight="10.550836550532098" viewBox="-1.0 -1.3763819204711736 16.23606797749979 10.550836550532098" refX="15.23606797749979" refY="3.8990363547948754"><path id="ProcessOnPath1053" d="M12.0 3.8990363547948754L0.0 7.798072709589751V0.0Z" stroke="#323232" stroke-width="2.0" fill="#323232" transform="matrix(-1.0,1.2246467991473532E-16,-1.2246467991473532E-16,-1.0,14.23606797749979,7.798072709589751)"/></marker><marker id="ProcessOnMarker1056" markerUnits="userSpaceOnUse" orient="auto" markerWidth="16.23606797749979" markerHeight="10.550836550532098" viewBox="-1.0 -1.3763819204711736 16.23606797749979 10.550836550532098" refX="-1.0" refY="3.8990363547948754"><path id="ProcessOnPath1057" d="M12.0 3.8990363547948754L0.0 7.798072709589751V0.0Z" stroke="#323232" stroke-width="2.0" fill="#323232" transform="matrix(1.0,0.0,0.0,1.0,0.0,0.0)"/></marker><marker id="ProcessOnMarker1060" markerUnits="userSpaceOnUse" orient="auto" markerWidth="16.23606797749979" markerHeight="10.550836550532098" viewBox="-1.0 -1.3763819204711736 16.23606797749979 10.550836550532098" refX="-1.0" refY="3.8990363547948754"><path id="ProcessOnPath1061" d="M12.0 3.8990363547948754L0.0 7.798072709589751V0.0Z" stroke="#323232" stroke-width="2.0" fill="#323232" transform="matrix(1.0,0.0,0.0,1.0,0.0,0.0)"/></marker></defs><g id="ProcessOnG1002"><path id="ProcessOnPath1003" d="M127.59999084472656 8.5H746.2499755859375V510.5999984741211H127.59999084472656V8.5Z" fill="none"/><g id="ProcessOnG1004"><g id="ProcessOnG1005" transform="matrix(1.0,0.0,0.0,1.0,291.59999084472656,28.5)" opacity="1.0"><path id="ProcessOnPath1006" d="M0.0 4.0Q0.0 0.0 4.0 0.0L280.0 0.0Q284.0 0.0 284.0 4.0L284.0 458.0999984741211Q284.0 462.0999984741211 280.0 462.0999984741211L4.0 462.0999984741211Q0.0 462.0999984741211 0.0 458.0999984741211Z" stroke="#323232" stroke-width="2.0" stroke-dasharray="none" opacity="1.0" fill="#ffffff"/></g><g id="ProcessOnG1007" transform="matrix(1.0,0.0,0.0,1.0,167.59999084472656,36.599998474121094)" opacity="1.0"><path id="ProcessOnPath1008" d="M16.099999999999998 8.625C16.099999999999998 -2.875 32.199999999999996 -2.875 32.199999999999996 8.625C32.199999999999996 20.125 16.099999999999998 20.125 16.099999999999998 8.625M24.15 17.25L24.15 51.75M24.15 51.75L4.0249999999999995 69.0M24.15 51.75L44.275 69.0M0.0 34.5L48.3 34.5" stroke="#323232" stroke-width="2.0" stroke-dasharray="none" opacity="1.0" fill="#ffffff"/><path id="ProcessOnPath1009" d="M0.0 0.0L48.3 0.0L48.3 69.0L0.0 69.0Z" stroke="none" stroke-width="0.0" stroke-dasharray="none" opacity="1.0" fill="none"/><g id="ProcessOnG1010" transform="matrix(1.0,0.0,0.0,1.0,-20.0,75.875)"><text id="ProcessOnText1011" fill="#000000" font-size="13" x="43.15" y="13.325" font-family="微软雅黑" font-weight="normal" font-style="normal" text-decoration="none" family="微软雅黑" text-anchor="middle" size="13">管理员</text></g></g><g id="ProcessOnG1012" transform="matrix(1.0,0.0,0.0,1.0,332.59999084472656,87.5999984741211)" opacity="1.0"><path id="ProcessOnPath1013" d="M0.0 24.0C0.0 -8.0 202.0 -8.0 202.0 24.0C202.0 56.0 0.0 56.0 0.0 24.0Z" stroke="#323232" stroke-width="2.0" stroke-dasharray="none" opacity="1.0" fill="#ffffff"/><g id="ProcessOnG1014" transform="matrix(1.0,0.0,0.0,1.0,10.0,15.875)"><text id="ProcessOnText1015" fill="#000000" font-size="13" x="90.0" y="13.325" font-family="微软雅黑" font-weight="normal" font-style="normal" text-decoration="none" family="微软雅黑" text-anchor="middle" size="13">发送站内消息</text></g></g><g id="ProcessOnG1016"><path id="ProcessOnPath1017" d="M215.89999084472657 71.0999984741211L318.2060826339817 106.60468328530217" stroke="#323232" stroke-width="2.0" stroke-dasharray="none" fill="none" marker-end="url(#ProcessOnMarker1018)"/></g><g id="ProcessOnG1020" transform="matrix(1.0,0.0,0.0,1.0,167.59999084472656,135.5999984741211)" opacity="1.0"><path id="ProcessOnPath1021" d="M16.099999999999998 8.625C16.099999999999998 -2.875 32.199999999999996 -2.875 32.199999999999996 8.625C32.199999999999996 20.125 16.099999999999998 20.125 16.099999999999998 8.625M24.15 17.25L24.15 51.75M24.15 51.75L4.0249999999999995 69.0M24.15 51.75L44.275 69.0M0.0 34.5L48.3 34.5" stroke="#323232" stroke-width="2.0" stroke-dasharray="none" opacity="1.0" fill="#ffffff"/><path id="ProcessOnPath1022" d="M0.0 0.0L48.3 0.0L48.3 69.0L0.0 69.0Z" stroke="none" stroke-width="0.0" stroke-dasharray="none" opacity="1.0" fill="none"/><g id="ProcessOnG1023" transform="matrix(1.0,0.0,0.0,1.0,-20.0,75.875)"><text id="ProcessOnText1024" fill="#000000" font-size="13" x="43.15" y="13.325" font-family="微软雅黑" font-weight="normal" font-style="normal" text-decoration="none" family="微软雅黑" text-anchor="middle" size="13">审核子系统</text></g></g><g id="ProcessOnG1025"><path id="ProcessOnPath1026" d="M215.89999084472657 170.0999984741211L318.97944740899504 118.42777731722559" stroke="#323232" stroke-width="2.0" stroke-dasharray="none" fill="none" marker-end="url(#ProcessOnMarker1027)"/></g><g id="ProcessOnG1029" transform="matrix(1.0,0.0,0.0,1.0,659.9499755859375,258.0)" opacity="1.0"><path id="ProcessOnPath1030" d="M16.099999999999998 8.625C16.099999999999998 -2.875 32.199999999999996 -2.875 32.199999999999996 8.625C32.199999999999996 20.125 16.099999999999998 20.125 16.099999999999998 8.625M24.15 17.25L24.15 51.75M24.15 51.75L4.0249999999999995 69.0M24.15 51.75L44.275 69.0M0.0 34.5L48.3 34.5" stroke="#323232" stroke-width="2.0" stroke-dasharray="none" opacity="1.0" fill="#ffffff"/><path id="ProcessOnPath1031" d="M0.0 0.0L48.3 0.0L48.3 69.0L0.0 69.0Z" stroke="none" stroke-width="0.0" stroke-dasharray="none" opacity="1.0" fill="none"/><g id="ProcessOnG1032" transform="matrix(1.0,0.0,0.0,1.0,-20.0,75.875)"><text id="ProcessOnText1033" fill="#000000" font-size="13" x="43.15" y="13.325" font-family="微软雅黑" font-weight="normal" font-style="normal" text-decoration="none" family="微软雅黑" text-anchor="middle" size="13">用户</text></g></g><g id="ProcessOnG1034" transform="matrix(1.0,0.0,0.0,1.0,332.59999084472656,188.5)" opacity="1.0"><path id="ProcessOnPath1035" d="M0.0 24.0C0.0 -8.0 202.0 -8.0 202.0 24.0C202.0 56.0 0.0 56.0 0.0 24.0Z" stroke="#323232" stroke-width="2.0" stroke-dasharray="none" opacity="1.0" fill="#ffffff"/><g id="ProcessOnG1036" transform="matrix(1.0,0.0,0.0,1.0,10.0,15.875)"><text id="ProcessOnText1037" fill="#000000" font-size="13" x="90.0" y="13.325" font-family="微软雅黑" font-weight="normal" font-style="normal" text-decoration="none" family="微软雅黑" text-anchor="middle" size="13">查询全部消息、未读消息</text></g></g><g id="ProcessOnG1038" transform="matrix(1.0,0.0,0.0,1.0,332.59999084472656,268.5)" opacity="1.0"><path id="ProcessOnPath1039" d="M0.0 24.0C0.0 -8.0 202.0 -8.0 202.0 24.0C202.0 56.0 0.0 56.0 0.0 24.0Z" stroke="#323232" stroke-width="2.0" stroke-dasharray="none" opacity="1.0" fill="#ffffff"/><g id="ProcessOnG1040" transform="matrix(1.0,0.0,0.0,1.0,10.0,15.875)"><text id="ProcessOnText1041" fill="#000000" font-size="13" x="90.0" y="13.325" font-family="微软雅黑" font-weight="normal" font-style="normal" text-decoration="none" family="微软雅黑" text-anchor="middle" size="13">查看消息详情</text></g></g><g id="ProcessOnG1042" transform="matrix(1.0,0.0,0.0,1.0,332.59999084472656,357.5)" opacity="1.0"><path id="ProcessOnPath1043" d="M0.0 24.0C0.0 -8.0 202.0 -8.0 202.0 24.0C202.0 56.0 0.0 56.0 0.0 24.0Z" stroke="#323232" stroke-width="2.0" stroke-dasharray="none" opacity="1.0" fill="#ffffff"/><g id="ProcessOnG1044" transform="matrix(1.0,0.0,0.0,1.0,10.0,15.875)"><text id="ProcessOnText1045" fill="#000000" font-size="13" x="90.0" y="13.325" font-family="微软雅黑" font-weight="normal" font-style="normal" text-decoration="none" family="微软雅黑" text-anchor="middle" size="13">显示未读消息数</text></g></g><g id="ProcessOnG1046"><path id="ProcessOnPath1047" d="M647.106661639692 284.3032290325294L534.5999908447266 212.5" stroke="#323232" stroke-width="2.0" stroke-dasharray="none" fill="none" marker-start="url(#ProcessOnMarker1048)"/></g><g id="ProcessOnG1050"><path id="ProcessOnPath1051" d="M644.7139076084377 292.5L597.274983215332 292.5L597.274983215332 292.5L534.5999908447266 292.5" stroke="#323232" stroke-width="2.0" stroke-dasharray="none" fill="none" marker-start="url(#ProcessOnMarker1052)"/></g><g id="ProcessOnG1054"><path id="ProcessOnPath1055" d="M534.5999908447266 381.5L647.3487870724595 317.5195322993421" stroke="#323232" stroke-width="2.0" stroke-dasharray="none" fill="none" marker-end="url(#ProcessOnMarker1056)"/></g><g id="ProcessOnG1058"><path id="ProcessOnPath1059" d="M535.5999908447266 109.5999984741211L664.2068079507465 247.45910458057406" stroke="#323232" stroke-width="2.0" stroke-dasharray="none" fill="none" marker-end="url(#ProcessOnMarker1060)"/></g></g></g></svg>